<?xml version="1.0" encoding="UTF-8"?>
<mxfile host="app.diagrams.net" modified="2025-07-28T07:30:00.000Z" agent="5.0" etag="abc123" version="24.6.4" type="device">
  <diagram name="System Architecture" id="architecture">
    <mxGraphModel dx="1422" dy="794" grid="1" gridSize="10" guides="1" tooltips="1" connect="1" arrows="1" fold="1" page="1" pageScale="1" pageWidth="1169" pageHeight="827" math="0" shadow="0">
      <root>
        <mxCell id="0" />
        <mxCell id="1" parent="0" />
        
        <mxCell id="title" value="Vehicle Price Prediction System - Architecture &amp; Flow" style="text;strokeColor=none;fillColor=none;html=1;fontSize=20;fontStyle=1;verticalAlign=middle;align=center;" vertex="1" parent="1">
          <mxGeometry x="284" y="20" width="600" height="40" as="geometry" />
        </mxCell>
        
        <mxCell id="client-layer" value="CLIENT LAYER" style="rounded=1;whiteSpace=wrap;html=1;fontSize=14;fontStyle=1;fillColor=#e1d5e7;strokeColor=#9673a6;" vertex="1" parent="1">
          <mxGeometry x="50" y="80" width="1070" height="40" as="geometry" />
        </mxCell>
        
        <mxCell id="web-browser" value="Web Browser&#xa;(HTML Interface)" style="rounded=1;whiteSpace=wrap;html=1;fillColor=#dae8fc;strokeColor=#6c8ebf;" vertex="1" parent="1">
          <mxGeometry x="80" y="140" width="120" height="60" as="geometry" />
        </mxCell>
        
        <mxCell id="api-client" value="API Client&#xa;(REST/JSON)" style="rounded=1;whiteSpace=wrap;html=1;fillColor=#dae8fc;strokeColor=#6c8ebf;" vertex="1" parent="1">
          <mxGeometry x="240" y="140" width="120" height="60" as="geometry" />
        </mxCell>
        
        <mxCell id="mobile-app" value="Mobile App&#xa;(Future)" style="rounded=1;whiteSpace=wrap;html=1;fillColor=#f8cecc;strokeColor=#b85450;opacity=50;" vertex="1" parent="1">
          <mxGeometry x="400" y="140" width="120" height="60" as="geometry" />
        </mxCell>
        
        <mxCell id="swagger-ui" value="Swagger UI&#xa;(/docs)" style="rounded=1;whiteSpace=wrap;html=1;fillColor=#dae8fc;strokeColor=#6c8ebf;" vertex="1" parent="1">
          <mxGeometry x="560" y="140" width="120" height="60" as="geometry" />
        </mxCell>
        
        <mxCell id="api-layer" value="API GATEWAY LAYER" style="rounded=1;whiteSpace=wrap;html=1;fontSize=14;fontStyle=1;fillColor=#fff2cc;strokeColor=#d6b656;" vertex="1" parent="1">
          <mxGeometry x="50" y="240" width="1070" height="40" as="geometry" />
        </mxCell>
        
        <mxCell id="fastapi-server" value="FastAPI Server&#xa;(Uvicorn)&#xa;:8000" style="rounded=1;whiteSpace=wrap;html=1;fillColor=#ffe6cc;strokeColor=#d79b00;fontSize=12;fontStyle=1;" vertex="1" parent="1">
          <mxGeometry x="300" y="300" width="200" height="80" as="geometry" />
        </mxCell>
        
        <mxCell id="cors" value="CORS&#xa;Middleware" style="rounded=1;whiteSpace=wrap;html=1;fillColor=#f8cecc;strokeColor=#b85450;" vertex="1" parent="1">
          <mxGeometry x="120" y="320" width="80" height="40" as="geometry" />
        </mxCell>
        
        <mxCell id="error-handler" value="Error&#xa;Handling" style="rounded=1;whiteSpace=wrap;html=1;fillColor=#f8cecc;strokeColor=#b85450;" vertex="1" parent="1">
          <mxGeometry x="220" y="320" width="80" height="40" as="geometry" />
        </mxCell>
        
        <mxCell id="static-files" value="Static Files&#xa;Handler" style="rounded=1;whiteSpace=wrap;html=1;fillColor=#f8cecc;strokeColor=#b85450;" vertex="1" parent="1">
          <mxGeometry x="520" y="320" width="80" height="40" as="geometry" />
        </mxCell>
        
        <mxCell id="templates" value="Jinja2&#xa;Templates" style="rounded=1;whiteSpace=wrap;html=1;fillColor=#f8cecc;strokeColor=#b85450;" vertex="1" parent="1">
          <mxGeometry x="620" y="320" width="80" height="40" as="geometry" />
        </mxCell>
        
        <mxCell id="business-layer" value="BUSINESS LOGIC LAYER (Multi-Agent System)" style="rounded=1;whiteSpace=wrap;html=1;fontSize=14;fontStyle=1;fillColor=#d5e8d4;strokeColor=#82b366;" vertex="1" parent="1">
          <mxGeometry x="50" y="420" width="1070" height="40" as="geometry" />
        </mxCell>
        
        <mxCell id="main-agent" value="Vehicle Price Agent&#xa;(Main Orchestrator)&#xa;&#xa;• Perceive-Decide-Act Pattern&#xa;• Coordinates all agents&#xa;• Manages prediction flow" style="rounded=1;whiteSpace=wrap;html=1;fillColor=#d4edda;strokeColor=#28a745;fontSize=10;" vertex="1" parent="1">
          <mxGeometry x="80" y="480" width="140" height="100" as="geometry" />
        </mxCell>
        
        <mxCell id="model-agent" value="Price Model Agent&#xa;&#xa;• Loads ML model (Random Forest)&#xa;• Feature preprocessing&#xa;• Price prediction&#xa;• Model validation" style="rounded=1;whiteSpace=wrap;html=1;fillColor=#d4edda;strokeColor=#28a745;fontSize=10;" vertex="1" parent="1">
          <mxGeometry x="240" y="480" width="140" height="100" as="geometry" />
        </mxCell>
        
        <mxCell id="market-agent" value="Market Data Agent&#xa;&#xa;• Real-time market trends&#xa;• External API integration&#xa;• Market index calculation&#xa;• Fuel price tracking" style="rounded=1;whiteSpace=wrap;html=1;fillColor=#d4edda;strokeColor=#28a745;fontSize=10;" vertex="1" parent="1">
          <mxGeometry x="400" y="480" width="140" height="100" as="geometry" />
        </mxCell>
        
        <mxCell id="explainer-agent" value="Explainer Agent&#xa;&#xa;• AI-powered explanations&#xa;• Feature importance&#xa;• Price justification&#xa;• FAISS vector search" style="rounded=1;whiteSpace=wrap;html=1;fillColor=#d4edda;strokeColor=#28a745;fontSize=10;" vertex="1" parent="1">
          <mxGeometry x="560" y="480" width="140" height="100" as="geometry" />
        </mxCell>
        
        <mxCell id="insight-agent" value="Insight Agent&#xa;&#xa;• Market recommendations&#xa;• Price trend analysis&#xa;• Investment advice&#xa;• Risk assessment" style="rounded=1;whiteSpace=wrap;html=1;fillColor=#d4edda;strokeColor=#28a745;fontSize=10;" vertex="1" parent="1">
          <mxGeometry x="720" y="480" width="140" height="100" as="geometry" />
        </mxCell>
        
        <mxCell id="logger-agent" value="Logger Agent&#xa;&#xa;• Prediction logging&#xa;• Audit trail&#xa;• Performance metrics&#xa;• Error tracking" style="rounded=1;whiteSpace=wrap;html=1;fillColor=#d4edda;strokeColor=#28a745;fontSize=10;" vertex="1" parent="1">
          <mxGeometry x="880" y="480" width="140" height="100" as="geometry" />
        </mxCell>
        
        <mxCell id="data-layer" value="DATA LAYER" style="rounded=1;whiteSpace=wrap;html=1;fontSize=14;fontStyle=1;fillColor=#e1d5e7;strokeColor=#9673a6;" vertex="1" parent="1">
          <mxGeometry x="50" y="620" width="1070" height="40" as="geometry" />
        </mxCell>
        
        <mxCell id="historical-data" value="Historical Vehicle Data&#xa;(CSV)&#xa;&#xa;• Vehicle age&#xa;• Mileage&#xa;• Price history&#xa;• Make/Model" style="rounded=1;whiteSpace=wrap;html=1;fillColor=#e6f3ff;strokeColor=#0066cc;fontSize=10;" vertex="1" parent="1">
          <mxGeometry x="80" y="680" width="120" height="80" as="geometry" />
        </mxCell>
        
        <mxCell id="market-data" value="Market Trends Data&#xa;(CSV/API)&#xa;&#xa;• Market index&#xa;• Fuel prices&#xa;• Economic indicators&#xa;• Seasonal trends" style="rounded=1;whiteSpace=wrap;html=1;fillColor=#e6f3ff;strokeColor=#0066cc;fontSize=10;" vertex="1" parent="1">
          <mxGeometry x="220" y="680" width="120" height="80" as="geometry" />
        </mxCell>
        
        <mxCell id="ml-model" value="ML Model&#xa;(Pickle)&#xa;&#xa;• Random Forest&#xa;• Trained weights&#xa;• Feature encoders&#xa;• Scalers" style="rounded=1;whiteSpace=wrap;html=1;fillColor=#fff2e6;strokeColor=#ff8000;fontSize=10;" vertex="1" parent="1">
          <mxGeometry x="360" y="680" width="120" height="80" as="geometry" />
        </mxCell>
        
        <mxCell id="database" value="SQLite Database&#xa;(predictions.db)&#xa;&#xa;• Prediction logs&#xa;• User sessions&#xa;• Performance metrics&#xa;• Error logs" style="rounded=1;whiteSpace=wrap;html=1;fillColor=#fff2e6;strokeColor=#ff8000;fontSize=10;" vertex="1" parent="1">
          <mxGeometry x="500" y="680" width="120" height="80" as="geometry" />
        </mxCell>
        
        <mxCell id="faiss-index" value="FAISS Index&#xa;(Vector DB)&#xa;&#xa;• Embeddings&#xa;• Similarity search&#xa;• Knowledge base&#xa;• Fast retrieval" style="rounded=1;whiteSpace=wrap;html=1;fillColor=#fff2e6;strokeColor=#ff8000;fontSize=10;" vertex="1" parent="1">
          <mxGeometry x="640" y="680" width="120" height="80" as="geometry" />
        </mxCell>
        
        <mxCell id="knowledge-docs" value="Knowledge Docs&#xa;(Text Files)&#xa;&#xa;• Pricing guidelines&#xa;• Market insights&#xa;• Domain knowledge&#xa;• Best practices" style="rounded=1;whiteSpace=wrap;html=1;fillColor=#e6f3ff;strokeColor=#0066cc;fontSize=10;" vertex="1" parent="1">
          <mxGeometry x="780" y="680" width="120" height="80" as="geometry" />
        </mxCell>
        
        <mxCell id="external-apis" value="External APIs&#xa;(Future)&#xa;&#xa;• OpenAI GPT&#xa;• Market data feeds&#xa;• Real-time pricing&#xa;• Weather data" style="rounded=1;whiteSpace=wrap;html=1;fillColor=#f8cecc;strokeColor=#b85450;opacity=50;fontSize=10;" vertex="1" parent="1">
          <mxGeometry x="920" y="680" width="120" height="80" as="geometry" />
        </mxCell>
        
        <mxCell id="arrow1" style="edgeStyle=orthogonalEdgeStyle;rounded=0;orthogonalLoop=1;jettySize=auto;html=1;strokeWidth=2;strokeColor=#d79b00;" edge="1" parent="1" source="web-browser" target="fastapi-server">
          <mxGeometry relative="1" as="geometry" />
        </mxCell>
        
        <mxCell id="arrow2" style="edgeStyle=orthogonalEdgeStyle;rounded=0;orthogonalLoop=1;jettySize=auto;html=1;strokeWidth=2;strokeColor=#d79b00;" edge="1" parent="1" source="api-client" target="fastapi-server">
          <mxGeometry relative="1" as="geometry" />
        </mxCell>
        
        <mxCell id="arrow3" style="edgeStyle=orthogonalEdgeStyle;rounded=0;orthogonalLoop=1;jettySize=auto;html=1;strokeWidth=2;strokeColor=#d79b00;" edge="1" parent="1" source="swagger-ui" target="fastapi-server">
          <mxGeometry relative="1" as="geometry" />
        </mxCell>
        
        <mxCell id="arrow4" style="edgeStyle=orthogonalEdgeStyle;rounded=0;orthogonalLoop=1;jettySize=auto;html=1;strokeWidth=2;strokeColor=#28a745;" edge="1" parent="1" source="fastapi-server" target="main-agent">
          <mxGeometry relative="1" as="geometry" />
        </mxCell>
        
        <mxCell id="arrow5" style="edgeStyle=orthogonalEdgeStyle;rounded=0;orthogonalLoop=1;jettySize=auto;html=1;strokeWidth=1;strokeColor=#28a745;" edge="1" parent="1" source="main-agent" target="model-agent">
          <mxGeometry relative="1" as="geometry" />
        </mxCell>
        
        <mxCell id="arrow6" style="edgeStyle=orthogonalEdgeStyle;rounded=0;orthogonalLoop=1;jettySize=auto;html=1;strokeWidth=1;strokeColor=#28a745;" edge="1" parent="1" source="main-agent" target="market-agent">
          <mxGeometry relative="1" as="geometry" />
        </mxCell>
        
        <mxCell id="arrow7" style="edgeStyle=orthogonalEdgeStyle;rounded=0;orthogonalLoop=1;jettySize=auto;html=1;strokeWidth=1;strokeColor=#28a745;" edge="1" parent="1" source="main-agent" target="explainer-agent">
          <mxGeometry relative="1" as="geometry" />
        </mxCell>
        
        <mxCell id="arrow8" style="edgeStyle=orthogonalEdgeStyle;rounded=0;orthogonalLoop=1;jettySize=auto;html=1;strokeWidth=1;strokeColor=#28a745;" edge="1" parent="1" source="main-agent" target="insight-agent">
          <mxGeometry relative="1" as="geometry" />
        </mxCell>
        
        <mxCell id="arrow9" style="edgeStyle=orthogonalEdgeStyle;rounded=0;orthogonalLoop=1;jettySize=auto;html=1;strokeWidth=1;strokeColor=#28a745;" edge="1" parent="1" source="main-agent" target="logger-agent">
          <mxGeometry relative="1" as="geometry" />
        </mxCell>
        
        <mxCell id="arrow10" style="edgeStyle=orthogonalEdgeStyle;rounded=0;orthogonalLoop=1;jettySize=auto;html=1;strokeWidth=1;strokeColor=#0066cc;" edge="1" parent="1" source="model-agent" target="ml-model">
          <mxGeometry relative="1" as="geometry" />
        </mxCell>
        
        <mxCell id="arrow11" style="edgeStyle=orthogonalEdgeStyle;rounded=0;orthogonalLoop=1;jettySize=auto;html=1;strokeWidth=1;strokeColor=#0066cc;" edge="1" parent="1" source="market-agent" target="historical-data">
          <mxGeometry relative="1" as="geometry" />
        </mxCell>
        
        <mxCell id="arrow12" style="edgeStyle=orthogonalEdgeStyle;rounded=0;orthogonalLoop=1;jettySize=auto;html=1;strokeWidth=1;strokeColor=#0066cc;" edge="1" parent="1" source="market-agent" target="market-data">
          <mxGeometry relative="1" as="geometry" />
        </mxCell>
        
        <mxCell id="arrow13" style="edgeStyle=orthogonalEdgeStyle;rounded=0;orthogonalLoop=1;jettySize=auto;html=1;strokeWidth=1;strokeColor=#0066cc;" edge="1" parent="1" source="explainer-agent" target="faiss-index">
          <mxGeometry relative="1" as="geometry" />
        </mxCell>
        
        <mxCell id="arrow14" style="edgeStyle=orthogonalEdgeStyle;rounded=0;orthogonalLoop=1;jettySize=auto;html=1;strokeWidth=1;strokeColor=#0066cc;" edge="1" parent="1" source="explainer-agent" target="knowledge-docs">
          <mxGeometry relative="1" as="geometry" />
        </mxCell>
        
        <mxCell id="arrow15" style="edgeStyle=orthogonalEdgeStyle;rounded=0;orthogonalLoop=1;jettySize=auto;html=1;strokeWidth=1;strokeColor=#0066cc;" edge="1" parent="1" source="logger-agent" target="database">
          <mxGeometry relative="1" as="geometry" />
        </mxCell>
        
        <mxCell id="legend-title" value="LEGEND" style="text;strokeColor=none;fillColor=none;html=1;fontSize=12;fontStyle=1;verticalAlign=middle;align=center;" vertex="1" parent="1">
          <mxGeometry x="1200" y="80" width="80" height="30" as="geometry" />
        </mxCell>
        
        <mxCell id="legend-client" value="Client Layer" style="rounded=1;whiteSpace=wrap;html=1;fillColor=#dae8fc;strokeColor=#6c8ebf;fontSize=10;" vertex="1" parent="1">
          <mxGeometry x="1200" y="120" width="80" height="30" as="geometry" />
        </mxCell>
        
        <mxCell id="legend-api" value="API Layer" style="rounded=1;whiteSpace=wrap;html=1;fillColor=#ffe6cc;strokeColor=#d79b00;fontSize=10;" vertex="1" parent="1">
          <mxGeometry x="1200" y="160" width="80" height="30" as="geometry" />
        </mxCell>
        
        <mxCell id="legend-agent" value="Agent Layer" style="rounded=1;whiteSpace=wrap;html=1;fillColor=#d4edda;strokeColor=#28a745;fontSize=10;" vertex="1" parent="1">
          <mxGeometry x="1200" y="200" width="80" height="30" as="geometry" />
        </mxCell>
        
        <mxCell id="legend-data" value="Data Layer" style="rounded=1;whiteSpace=wrap;html=1;fillColor=#e6f3ff;strokeColor=#0066cc;fontSize=10;" vertex="1" parent="1">
          <mxGeometry x="1200" y="240" width="80" height="30" as="geometry" />
        </mxCell>
        
        <mxCell id="legend-future" value="Future Features" style="rounded=1;whiteSpace=wrap;html=1;fillColor=#f8cecc;strokeColor=#b85450;opacity=50;fontSize=10;" vertex="1" parent="1">
          <mxGeometry x="1200" y="280" width="80" height="30" as="geometry" />
        </mxCell>
        
      </root>
    </mxGraphModel>
  </diagram>
  
  <diagram name="Data Flow" id="dataflow">
    <mxGraphModel dx="1422" dy="794" grid="1" gridSize="10" guides="1" tooltips="1" connect="1" arrows="1" fold="1" page="1" pageScale="1" pageWidth="1169" pageHeight="827" math="0" shadow="0">
      <root>
        <mxCell id="0" />
        <mxCell id="1" parent="0" />
        
        <mxCell id="flow-title" value="Vehicle Price Prediction - Data Flow &amp; Process" style="text;strokeColor=none;fillColor=none;html=1;fontSize=20;fontStyle=1;verticalAlign=middle;align=center;" vertex="1" parent="1">
          <mxGeometry x="284" y="20" width="600" height="40" as="geometry" />
        </mxCell>
        
        <mxCell id="user-input" value="1. User Input&#xa;&#xa;• Vehicle Age: 5 years&#xa;• Mileage: 50,000 miles&#xa;• Make: Toyota&#xa;• Model: Camry" style="rounded=1;whiteSpace=wrap;html=1;fillColor=#e1d5e7;strokeColor=#9673a6;fontSize=12;fontStyle=1;" vertex="1" parent="1">
          <mxGeometry x="80" y="100" width="150" height="80" as="geometry" />
        </mxCell>
        
        <mxCell id="api-request" value="2. API Request&#xa;&#xa;POST /predict&#xa;Content-Type: application/json&#xa;{&#xa;  vehicle_age: 5,&#xa;  mileage: 50000,&#xa;  make: &quot;Toyota&quot;,&#xa;  model: &quot;Camry&quot;&#xa;}" style="rounded=1;whiteSpace=wrap;html=1;fillColor=#fff2cc;strokeColor=#d6b656;fontSize=10;" vertex="1" parent="1">
          <mxGeometry x="280" y="100" width="180" height="80" as="geometry" />
        </mxCell>
        
        <mxCell id="main-processing" value="3. Main Agent Processing&#xa;&#xa;• Validate input data&#xa;• Initialize prediction context&#xa;• Coordinate agent tasks&#xa;• Orchestrate workflow" style="rounded=1;whiteSpace=wrap;html=1;fillColor=#d5e8d4;strokeColor=#82b366;fontSize=11;" vertex="1" parent="1">
          <mxGeometry x="500" y="100" width="160" height="80" as="geometry" />
        </mxCell>
        
        <mxCell id="data-loading" value="4. Data Loading &amp; Merging&#xa;&#xa;• Load historical_vehicle_data.csv&#xa;• Load market_trends.csv&#xa;• Merge on date column&#xa;• Handle missing values" style="rounded=1;whiteSpace=wrap;html=1;fillColor=#dae8fc;strokeColor=#6c8ebf;fontSize=10;" vertex="1" parent="1">
          <mxGeometry x="80" y="220" width="160" height="80" as="geometry" />
        </mxCell>
        
        <mxCell id="feature-engineering" value="5. Feature Engineering&#xa;&#xa;• Extract features:&#xa;  - vehicle_age&#xa;  - mileage&#xa;  - market_index&#xa;  - fuel_price&#xa;• Normalize/scale data" style="rounded=1;whiteSpace=wrap;html=1;fillColor=#dae8fc;strokeColor=#6c8ebf;fontSize=10;" vertex="1" parent="1">
          <mxGeometry x="280" y="220" width="160" height="80" as="geometry" />
        </mxCell>
        
        <mxCell id="model-prediction" value="6. ML Model Prediction&#xa;&#xa;• Load Random Forest model&#xa;• Validate 4 features&#xa;• Make prediction&#xa;• Return price: $16,712.50" style="rounded=1;whiteSpace=wrap;html=1;fillColor=#ffe6cc;strokeColor=#d79b00;fontSize=10;" vertex="1" parent="1">
          <mxGeometry x="480" y="220" width="160" height="80" as="geometry" />
        </mxCell>
        
        <mxCell id="market-analysis" value="7. Market Analysis&#xa;&#xa;• Fetch current market trends&#xa;• Calculate market adjustments&#xa;• Analyze seasonal factors&#xa;• Get fuel price impact" style="rounded=1;whiteSpace=wrap;html=1;fillColor=#f8cecc;strokeColor=#b85450;fontSize=10;" vertex="1" parent="1">
          <mxGeometry x="680" y="220" width="160" height="80" as="geometry" />
        </mxCell>
        
        <mxCell id="ai-explanation" value="8. AI Explanation Generation&#xa;&#xa;• Use FAISS vector search&#xa;• Generate price justification&#xa;• Explain feature importance&#xa;• Provide reasoning" style="rounded=1;whiteSpace=wrap;html=1;fillColor=#e1d5e7;strokeColor=#9673a6;fontSize=10;" vertex="1" parent="1">
          <mxGeometry x="880" y="220" width="160" height="80" as="geometry" />
        </mxCell>
        
        <mxCell id="insights-generation" value="9. Insights &amp; Recommendations&#xa;&#xa;• Market recommendation&#xa;• Price trend analysis&#xa;• Investment advice&#xa;• Risk assessment" style="rounded=1;whiteSpace=wrap;html=1;fillColor=#fff2cc;strokeColor=#d6b656;fontSize=10;" vertex="1" parent="1">
          <mxGeometry x="80" y="340" width="160" height="80" as="geometry" />
        </mxCell>
        
        <mxCell id="logging" value="10. Prediction Logging&#xa;&#xa;• Log to SQLite database&#xa;• Store prediction details&#xa;• Record timestamp&#xa;• Track performance metrics" style="rounded=1;whiteSpace=wrap;html=1;fillColor=#d4edda;strokeColor=#28a745;fontSize=10;" vertex="1" parent="1">
          <mxGeometry x="280" y="340" width="160" height="80" as="geometry" />
        </mxCell>
        
        <mxCell id="response-assembly" value="11. Response Assembly&#xa;&#xa;• Aggregate all results&#xa;• Format JSON response&#xa;• Include all agent outputs&#xa;• Validate response structure" style="rounded=1;whiteSpace=wrap;html=1;fillColor=#e1d5e7;strokeColor=#9673a6;fontSize=10;" vertex="1" parent="1">
          <mxGeometry x="480" y="340" width="160" height="80" as="geometry" />
        </mxCell>
        
        <mxCell id="final-response" value="12. API Response&#xa;&#xa;{&#xa;  &quot;predicted_price&quot;: 16712.50,&#xa;  &quot;explanation&quot;: &quot;Based on...&quot;,&#xa;  &quot;recommendation&quot;: &quot;Good value...&quot;,&#xa;  &quot;market_data&quot;: {...},&#xa;  &quot;confidence&quot;: 0.85&#xa;}" style="rounded=1;whiteSpace=wrap;html=1;fillColor=#fff2cc;strokeColor=#d6b656;fontSize=10;" vertex="1" parent="1">
          <mxGeometry x="680" y="340" width="180" height="80" as="geometry" />
        </mxCell>
        
        <mxCell id="user-display" value="13. User Display&#xa;&#xa;• Show predicted price&#xa;• Display explanation&#xa;• Present recommendations&#xa;• Visualize insights" style="rounded=1;whiteSpace=wrap;html=1;fillColor=#e1d5e7;strokeColor=#9673a6;fontSize=11;fontStyle=1;" vertex="1" parent="1">
          <mxGeometry x="900" y="340" width="160" height="80" as="geometry" />
        </mxCell>
        
        <mxCell id="flow1" style="edgeStyle=orthogonalEdgeStyle;rounded=0;orthogonalLoop=1;jettySize=auto;html=1;strokeWidth=2;strokeColor=#d79b00;" edge="1" parent="1" source="user-input" target="api-request">
          <mxGeometry relative="1" as="geometry" />
        </mxCell>
        
        <mxCell id="flow2" style="edgeStyle=orthogonalEdgeStyle;rounded=0;orthogonalLoop=1;jettySize=auto;html=1;strokeWidth=2;strokeColor=#d79b00;" edge="1" parent="1" source="api-request" target="main-processing">
          <mxGeometry relative="1" as="geometry" />
        </mxCell>
        
        <mxCell id="flow3" style="edgeStyle=orthogonalEdgeStyle;rounded=0;orthogonalLoop=1;jettySize=auto;html=1;strokeWidth=2;strokeColor=#6c8ebf;" edge="1" parent="1" source="main-processing" target="data-loading">
          <mxGeometry relative="1" as="geometry">
            <Array as="points">
              <mxPoint x="580" y="200" />
              <mxPoint x="160" y="200" />
            </Array>
          </mxGeometry>
        </mxCell>
        
        <mxCell id="flow4" style="edgeStyle=orthogonalEdgeStyle;rounded=0;orthogonalLoop=1;jettySize=auto;html=1;strokeWidth=2;strokeColor=#6c8ebf;" edge="1" parent="1" source="data-loading" target="feature-engineering">
          <mxGeometry relative="1" as="geometry" />
        </mxCell>
        
        <mxCell id="flow5" style="edgeStyle=orthogonalEdgeStyle;rounded=0;orthogonalLoop=1;jettySize=auto;html=1;strokeWidth=2;strokeColor=#d79b00;" edge="1" parent="1" source="feature-engineering" target="model-prediction">
          <mxGeometry relative="1" as="geometry" />
        </mxCell>
        
        <mxCell id="flow6" style="edgeStyle=orthogonalEdgeStyle;rounded=0;orthogonalLoop=1;jettySize=auto;html=1;strokeWidth=1;strokeColor=#b85450;" edge="1" parent="1" source="model-prediction" target="market-analysis">
          <mxGeometry relative="1" as="geometry" />
        </mxCell>
        
        <mxCell id="flow7" style="edgeStyle=orthogonalEdgeStyle;rounded=0;orthogonalLoop=1;jettySize=auto;html=1;strokeWidth=1;strokeColor=#9673a6;" edge="1" parent="1" source="market-analysis" target="ai-explanation">
          <mxGeometry relative="1" as="geometry" />
        </mxCell>
        
        <mxCell id="flow8" style="edgeStyle=orthogonalEdgeStyle;rounded=0;orthogonalLoop=1;jettySize=auto;html=1;strokeWidth=1;strokeColor=#d6b656;" edge="1" parent="1" source="ai-explanation" target="insights-generation">
          <mxGeometry relative="1" as="geometry">
            <Array as="points">
              <mxPoint x="960" y="320" />
              <mxPoint x="160" y="320" />
            </Array>
          </mxGeometry>
        </mxCell>
        
        <mxCell id="flow9" style="edgeStyle=orthogonalEdgeStyle;rounded=0;orthogonalLoop=1;jettySize=auto;html=1;strokeWidth=1;strokeColor=#28a745;" edge="1" parent="1" source="insights-generation" target="logging">
          <mxGeometry relative="1" as="geometry" />
        </mxCell>
        
        <mxCell id="flow10" style="edgeStyle=orthogonalEdgeStyle;rounded=0;orthogonalLoop=1;jettySize=auto;html=1;strokeWidth=2;strokeColor=#9673a6;" edge="1" parent="1" source="logging" target="response-assembly">
          <mxGeometry relative="1" as="geometry" />
        </mxCell>
        
        <mxCell id="flow11" style="edgeStyle=orthogonalEdgeStyle;rounded=0;orthogonalLoop=1;jettySize=auto;html=1;strokeWidth=2;strokeColor=#d6b656;" edge="1" parent="1" source="response-assembly" target="final-response">
          <mxGeometry relative="1" as="geometry" />
        </mxCell>
        
        <mxCell id="flow12" style="edgeStyle=orthogonalEdgeStyle;rounded=0;orthogonalLoop=1;jettySize=auto;html=1;strokeWidth=2;strokeColor=#9673a6;" edge="1" parent="1" source="final-response" target="user-display">
          <mxGeometry relative="1" as="geometry" />
        </mxCell>
        
        <mxCell id="performance-title" value="PERFORMANCE METRICS" style="text;strokeColor=none;fillColor=none;html=1;fontSize=14;fontStyle=1;verticalAlign=middle;align=center;" vertex="1" parent="1">
          <mxGeometry x="80" y="460" width="200" height="30" as="geometry" />
        </mxCell>
        
        <mxCell id="metrics" value="• Training RMSE: 658.05&#xa;• Test RMSE: 2670.00&#xa;• Features: 4 (vehicle_age, mileage, market_index, fuel_price)&#xa;• Model: Random Forest&#xa;• Response Time: ~200-500ms&#xa;• Accuracy: ~85% confidence&#xa;• Platform: Cross-platform (Windows, macOS, Linux)" style="rounded=1;whiteSpace=wrap;html=1;fillColor=#f0f0f0;strokeColor=#666666;fontSize=10;align=left;" vertex="1" parent="1">
          <mxGeometry x="80" y="500" width="350" height="100" as="geometry" />
        </mxCell>
        
        <mxCell id="tech-title" value="TECHNOLOGY STACK" style="text;strokeColor=none;fillColor=none;html=1;fontSize=14;fontStyle=1;verticalAlign=middle;align=center;" vertex="1" parent="1">
          <mxGeometry x="500" y="460" width="200" height="30" as="geometry" />
        </mxCell>
        
        <mxCell id="tech-stack" value="• Backend: FastAPI + Uvicorn&#xa;• ML: scikit-learn, pandas, numpy&#xa;• Database: SQLite + SQLAlchemy&#xa;• AI: LangChain + FAISS&#xa;• Frontend: HTML + Jinja2 templates&#xa;• API: RESTful with OpenAPI/Swagger&#xa;• Deployment: Docker + cross-platform scripts" style="rounded=1;whiteSpace=wrap;html=1;fillColor=#f0f0f0;strokeColor=#666666;fontSize=10;align=left;" vertex="1" parent="1">
          <mxGeometry x="500" y="500" width="350" height="100" as="geometry" />
        </mxCell>
        
      </root>
    </mxGraphModel>
  </diagram>
  
  <diagram name="Agent Interaction" id="agents">
    <mxGraphModel dx="1422" dy="794" grid="1" gridSize="10" guides="1" tooltips="1" connect="1" arrows="1" fold="1" page="1" pageScale="1" pageWidth="1169" pageHeight="827" math="0" shadow="0">
      <root>
        <mxCell id="0" />
        <mxCell id="1" parent="0" />
        
        <mxCell id="agent-title" value="Multi-Agent System - Interaction Patterns" style="text;strokeColor=none;fillColor=none;html=1;fontSize=20;fontStyle=1;verticalAlign=middle;align=center;" vertex="1" parent="1">
          <mxGeometry x="284" y="20" width="600" height="40" as="geometry" />
        </mxCell>
        
        <mxCell id="central-agent" value="Vehicle Price Agent&#xa;(Main Orchestrator)&#xa;&#xa;Perceive-Decide-Act Pattern:&#xa;• PERCEIVE: Input validation&#xa;• DECIDE: Agent coordination&#xa;• ACT: Response generation" style="ellipse;whiteSpace=wrap;html=1;fillColor=#d4edda;strokeColor=#28a745;fontSize=12;fontStyle=1;" vertex="1" parent="1">
          <mxGeometry x="450" y="350" width="200" height="120" as="geometry" />
        </mxCell>
        
        <mxCell id="model-agent-detailed" value="Price Model Agent&#xa;&#xa;Responsibilities:&#xa;• Load ML model (Random Forest)&#xa;• Feature preprocessing &amp; validation&#xa;• Price prediction execution&#xa;• Model performance monitoring&#xa;&#xa;Inputs: Vehicle features&#xa;Outputs: Predicted price + confidence" style="rounded=1;whiteSpace=wrap;html=1;fillColor=#cce5ff;strokeColor=#0066cc;fontSize=10;" vertex="1" parent="1">
          <mxGeometry x="150" y="100" width="180" height="120" as="geometry" />
        </mxCell>
        
        <mxCell id="market-agent-detailed" value="Market Data Agent&#xa;&#xa;Responsibilities:&#xa;• Load historical &amp; market data&#xa;• Data merging &amp; cleaning&#xa;• Real-time market trends&#xa;• External API integration&#xa;&#xa;Inputs: Raw data sources&#xa;Outputs: Processed market data" style="rounded=1;whiteSpace=wrap;html=1;fillColor=#fff2cc;strokeColor=#d6b656;fontSize=10;" vertex="1" parent="1">
          <mxGeometry x="700" y="100" width="180" height="120" as="geometry" />
        </mxCell>
        
        <mxCell id="explainer-agent-detailed" value="Explainer Agent&#xa;&#xa;Responsibilities:&#xa;• AI-powered explanations&#xa;• FAISS vector similarity search&#xa;• Feature importance analysis&#xa;• Price justification generation&#xa;&#xa;Inputs: Prediction + context&#xa;Outputs: Human-readable explanation" style="rounded=1;whiteSpace=wrap;html=1;fillColor=#e6ffe6;strokeColor=#00cc44;fontSize=10;" vertex="1" parent="1">
          <mxGeometry x="150" y="600" width="180" height="120" as="geometry" />
        </mxCell>
        
        <mxCell id="insight-agent-detailed" value="Insight Agent&#xa;&#xa;Responsibilities:&#xa;• Market recommendations&#xa;• Price trend analysis&#xa;• Investment advice generation&#xa;• Risk assessment&#xa;&#xa;Inputs: Market data + prediction&#xa;Outputs: Strategic insights" style="rounded=1;whiteSpace=wrap;html=1;fillColor=#ffe6f2;strokeColor=#cc0066;fontSize=10;" vertex="1" parent="1">
          <mxGeometry x="700" y="600" width="180" height="120" as="geometry" />
        </mxCell>
        
        <mxCell id="logger-agent-detailed" value="Logger Agent&#xa;&#xa;Responsibilities:&#xa;• Prediction audit logging&#xa;• Performance metrics tracking&#xa;• Error monitoring &amp; reporting&#xa;• Database operations&#xa;&#xa;Inputs: All agent activities&#xa;Outputs: Audit trail + metrics" style="rounded=1;whiteSpace=wrap;html=1;fillColor=#f0f0f0;strokeColor=#666666;fontSize=10;" vertex="1" parent="1">
          <mxGeometry x="425" y="100" width="180" height="120" as="geometry" />
        </mxCell>
        
        <mxCell id="data-processor" value="Data Processing Pipeline&#xa;&#xa;Responsibilities:&#xa;• CSV file loading&#xa;• Data validation &amp; cleaning&#xa;• Feature engineering&#xa;• Missing value handling&#xa;&#xa;Inputs: Raw data files&#xa;Outputs: Clean feature vectors" style="rounded=1;whiteSpace=wrap;html=1;fillColor=#ffeecc;strokeColor=#cc8800;fontSize=10;" vertex="1" parent="1">
          <mxGeometry x="425" y="600" width="180" height="120" as="geometry" />
        </mxCell>
        
        <mxCell id="comm1" style="edgeStyle=orthogonalEdgeStyle;rounded=0;orthogonalLoop=1;jettySize=auto;html=1;strokeWidth=2;strokeColor=#28a745;startArrow=classic;startFill=1;" edge="1" parent="1" source="central-agent" target="model-agent-detailed">
          <mxGeometry relative="1" as="geometry" />
        </mxCell>
        <mxCell id="comm1-label" value="Request Price&#xa;Prediction" style="text;strokeColor=none;fillColor=none;html=1;fontSize=9;fontStyle=1;verticalAlign=middle;align=center;rotation=0;" vertex="1" parent="1">
          <mxGeometry x="280" y="250" width="80" height="30" as="geometry" />
        </mxCell>
        
        <mxCell id="comm2" style="edgeStyle=orthogonalEdgeStyle;rounded=0;orthogonalLoop=1;jettySize=auto;html=1;strokeWidth=2;strokeColor=#d6b656;startArrow=classic;startFill=1;" edge="1" parent="1" source="central-agent" target="market-agent-detailed">
          <mxGeometry relative="1" as="geometry" />
        </mxCell>
        <mxCell id="comm2-label" value="Fetch Market&#xa;Data" style="text;strokeColor=none;fillColor=none;html=1;fontSize=9;fontStyle=1;verticalAlign=middle;align=center;" vertex="1" parent="1">
          <mxGeometry x="620" y="250" width="80" height="30" as="geometry" />
        </mxCell>
        
        <mxCell id="comm3" style="edgeStyle=orthogonalEdgeStyle;rounded=0;orthogonalLoop=1;jettySize=auto;html=1;strokeWidth=2;strokeColor=#00cc44;startArrow=classic;startFill=1;" edge="1" parent="1" source="central-agent" target="explainer-agent-detailed">
          <mxGeometry relative="1" as="geometry" />
        </mxCell>
        <mxCell id="comm3-label" value="Generate&#xa;Explanation" style="text;strokeColor=none;fillColor=none;html=1;fontSize=9;fontStyle=1;verticalAlign=middle;align=center;" vertex="1" parent="1">
          <mxGeometry x="280" y="500" width="80" height="30" as="geometry" />
        </mxCell>
        
        <mxCell id="comm4" style="edgeStyle=orthogonalEdgeStyle;rounded=0;orthogonalLoop=1;jettySize=auto;html=1;strokeWidth=2;strokeColor=#cc0066;startArrow=classic;startFill=1;" edge="1" parent="1" source="central-agent" target="insight-agent-detailed">
          <mxGeometry relative="1" as="geometry" />
        </mxCell>
        <mxCell id="comm4-label" value="Request&#xa;Insights" style="text;strokeColor=none;fillColor=none;html=1;fontSize=9;fontStyle=1;verticalAlign=middle;align=center;" vertex="1" parent="1">
          <mxGeometry x="620" y="500" width="80" height="30" as="geometry" />
        </mxCell>
        
        <mxCell id="comm5" style="edgeStyle=orthogonalEdgeStyle;rounded=0;orthogonalLoop=1;jettySize=auto;html=1;strokeWidth=2;strokeColor=#666666;startArrow=classic;startFill=1;" edge="1" parent="1" source="central-agent" target="logger-agent-detailed">
          <mxGeometry relative="1" as="geometry" />
        </mxCell>
        <mxCell id="comm5-label" value="Log Activity" style="text;strokeColor=none;fillColor=none;html=1;fontSize=9;fontStyle=1;verticalAlign=middle;align=center;" vertex="1" parent="1">
          <mxGeometry x="510" y="250" width="80" height="30" as="geometry" />
        </mxCell>
        
        <mxCell id="comm6" style="edgeStyle=orthogonalEdgeStyle;rounded=0;orthogonalLoop=1;jettySize=auto;html=1;strokeWidth=2;strokeColor=#cc8800;startArrow=classic;startFill=1;" edge="1" parent="1" source="central-agent" target="data-processor">
          <mxGeometry relative="1" as="geometry" />
        </mxCell>
        <mxCell id="comm6-label" value="Process Data" style="text;strokeColor=none;fillColor=none;html=1;fontSize=9;fontStyle=1;verticalAlign=middle;align=center;" vertex="1" parent="1">
          <mxGeometry x="510" y="500" width="80" height="30" as="geometry" />
        </mxCell>
        
        <mxCell id="sequence-title" value="EXECUTION SEQUENCE" style="text;strokeColor=none;fillColor=none;html=1;fontSize=14;fontStyle=1;verticalAlign=middle;align=center;" vertex="1" parent="1">
          <mxGeometry x="950" y="80" width="200" height="30" as="geometry" />
        </mxCell>
        
        <mxCell id="sequence" value="1. Main Agent receives prediction request&#xa;2. Data Processor loads &amp; cleans data&#xa;3. Market Agent fetches market trends&#xa;4. Model Agent makes price prediction&#xa;5. Explainer Agent generates explanation&#xa;6. Insight Agent provides recommendations&#xa;7. Logger Agent records all activities&#xa;8. Main Agent assembles final response&#xa;9. Response sent back to client" style="rounded=1;whiteSpace=wrap;html=1;fillColor=#f8f9fa;strokeColor=#6c757d;fontSize=11;align=left;" vertex="1" parent="1">
          <mxGeometry x="950" y="120" width="200" height="160" as="geometry" />
        </mxCell>
        
        <mxCell id="patterns-title" value="DESIGN PATTERNS" style="text;strokeColor=none;fillColor=none;html=1;fontSize=14;fontStyle=1;verticalAlign=middle;align=center;" vertex="1" parent="1">
          <mxGeometry x="950" y="320" width="200" height="30" as="geometry" />
        </mxCell>
        
        <mxCell id="patterns" value="• Orchestrator Pattern: Main Agent coordinates&#xa;• Observer Pattern: Logger monitors all agents&#xa;• Strategy Pattern: Different prediction strategies&#xa;• Factory Pattern: Agent creation &amp; initialization&#xa;• Chain of Responsibility: Sequential processing&#xa;• Command Pattern: Agent task execution&#xa;• Facade Pattern: Simple API interface" style="rounded=1;whiteSpace=wrap;html=1;fillColor=#f8f9fa;strokeColor=#6c757d;fontSize=10;align=left;" vertex="1" parent="1">
          <mxGeometry x="950" y="360" width="200" height="140" as="geometry" />
        </mxCell>
        
        <mxCell id="error-title" value="ERROR HANDLING" style="text;strokeColor=none;fillColor=none;html=1;fontSize=14;fontStyle=1;verticalAlign=middle;align=center;" vertex="1" parent="1">
          <mxGeometry x="950" y="540" width="200" height="30" as="geometry" />
        </mxCell>
        
        <mxCell id="error-handling" value="• Graceful degradation on agent failures&#xa;• Fallback mechanisms for missing data&#xa;• Comprehensive error logging&#xa;• Circuit breaker for external APIs&#xa;• Input validation at each agent&#xa;• Timeout handling for long operations&#xa;• Recovery strategies for database issues" style="rounded=1;whiteSpace=wrap;html=1;fillColor=#fff3cd;strokeColor=#ffc107;fontSize=10;align=left;" vertex="1" parent="1">
          <mxGeometry x="950" y="580" width="200" height="140" as="geometry" />
        </mxCell>
        
      </root>
    </mxGraphModel>
  </diagram>
</mxfile>
